<svg width="24px" height="24px" viewBox="0 0 24 24" version="1.1" xmlns="http://www.w3.org/2000/svg" xmlns:xlink="http://www.w3.org/1999/xlink">
    <g stroke="none" stroke-width="1" fill="none" fill-rule="evenodd">
        <path d="M19,7 L17,7 L17,6 C17,3.24 14.76,1 12,1 C9.24,1 7,3.24 7,6 L7,7 L5,7 C3.9,7 3,7.9 3,9 L3,19 C3,20.1 3.9,21 5,21 L19,21 C20.1,21 21,20.1 21,19 L21,9 C21,7.9 20.1,7 19,7 Z M9,6 C9,4.34 10.34,3 12,3 C13.66,3 15,4.34 15,6 L15,7 L9,7 L9,6 Z M19,19 L5,19 L5,9 L19,9 L19,19 Z M12,13 C13.1,13 14,12.1 14,11 C14,9.9 13.1,9 12,9 C10.9,9 10,9.9 10,11 C10,12.1 10.9,13 12,13 Z M12,11 C12,11 12,11 12,11 C12,11 12,11 12,11 C12,11 12,11 12,11 Z M16,17 L8,17 L8,16.28 C8,14.7 10.67,14 12,14 C13.33,14 16,14.7 16,16.28 L16,17 Z" fill="#000000" fill-rule="nonzero"></path>
    </g>
</svg>