<svg width="24px" height="24px" viewBox="0 0 24 24" version="1.1" xmlns="http://www.w3.org/2000/svg" xmlns:xlink="http://www.w3.org/1999/xlink">
    <g stroke="none" stroke-width="1" fill="none" fill-rule="evenodd">
        <path d="M12,3 C14.21,3 16,4.79 16,7 C16,9.21 14.21,11 12,11 C9.79,11 8,9.21 8,7 C8,4.79 9.79,3 12,3 Z M12,5 C10.9,5 10,5.9 10,7 C10,8.1 10.9,9 12,9 C13.1,9 14,8.1 14,7 C14,5.9 13.1,5 12,5 Z M12,12 C16.42,12 20,15.58 20,20 L20,21 L4,21 L4,20 C4,15.58 7.58,12 12,12 Z M12,14 C9.39,14 7.21,15.84 6.38,18.4 L17.62,18.4 C16.79,15.84 14.61,14 12,14 Z" fill="#000000" fill-rule="nonzero"></path>
    </g>
</svg>